<?xml version="1.0" standalone="no"?>
<!DOCTYPE svg PUBLIC "-//W3C//DTD SVG 20010904//EN"
 "http://www.w3.org/TR/2001/REC-SVG-20010904/DTD/svg10.dtd">
<svg version="1.0" xmlns="http://www.w3.org/2000/svg"
 width="264pt" height="250pt" viewBox="0 0 264 250"
 preserveAspectRatio="xMidYMid meet">

<g transform="translate(0,250) scale(0.100000,-0.100000)"
fill="#000000" stroke="none">
<path d="M1094 2360 c-266 -48 -548 -219 -714 -434 -152 -198 -232 -438 -232
-701 0 -320 111 -593 333 -814 140 -140 342 -257 534 -308 87 -23 120 -26 255
-27 224 -1 359 29 533 115 162 80 332 225 434 371 64 91 138 249 169 358 36
130 46 405 19 527 -98 446 -408 775 -845 894 -59 17 -112 22 -255 24 -99 2
-203 0 -231 -5z m471 -109 c123 -34 307 -128 399 -205 113 -94 215 -217 270
-323 16 -33 16 -33 -6 -33 -43 1 -280 57 -287 68 -4 7 -31 16 -61 22 -57 11
-80 24 -80 46 0 8 16 53 36 100 19 47 33 88 30 91 -3 3 -44 -4 -90 -16 -47
-11 -90 -21 -96 -21 -6 0 -10 34 -10 89 0 50 -4 93 -10 96 -6 4 -39 -17 -75
-45 l-64 -51 -25 46 c-14 25 -38 65 -52 90 -14 25 -29 43 -33 41 -4 -3 -23
-44 -41 -91 l-33 -85 -31 23 c-17 13 -65 47 -106 76 l-75 52 -6 -113 c-4 -62
-7 -115 -8 -117 -2 -6 -42 5 -120 33 -40 15 -77 26 -82 24 -5 -2 25 -56 67
-121 41 -65 73 -124 71 -131 -6 -16 -75 -26 -173 -26 -56 0 -74 -3 -74 -14 0
-18 60 -72 139 -125 64 -44 65 -47 28 -88 -17 -19 -31 -23 -77 -23 -44 0 -61
-5 -75 -20 -10 -11 -54 -37 -99 -58 -90 -44 -176 -121 -213 -194 -31 -60 -81
-190 -88 -230 -7 -40 0 -52 123 -216 34 -44 34 -45 18 -81 -9 -20 -20 -49 -26
-65 l-11 -29 -28 34 c-28 33 -29 34 -66 21 -20 -8 -38 -12 -40 -10 -13 14 -68
139 -93 208 -91 261 -74 553 48 807 135 280 428 509 735 577 107 23 384 16
490 -13z m-80 -297 c19 -8 20 -24 1 -24 -7 0 -40 -20 -72 -45 -51 -40 -63 -45
-108 -45 -28 0 -68 -5 -89 -11 -56 -15 -62 -8 -29 37 36 50 92 86 147 95 40 7
122 3 150 -7z m210 -24 c3 -10 13 -24 22 -32 14 -11 15 -10 8 11 -4 15 -3 21
3 17 11 -7 82 -172 82 -189 -1 -7 -12 -25 -26 -42 l-25 -30 -33 37 c-18 21
-39 57 -46 80 -16 54 -43 78 -86 78 -18 0 -35 4 -39 9 -9 15 60 24 83 12 25
-13 32 -14 32 -2 0 12 -56 31 -92 31 -17 0 -27 4 -23 10 12 19 87 11 112 -12
30 -28 43 -15 15 15 -25 27 -28 39 -7 31 8 -3 17 -14 20 -24z m-172 -25 c-1
-5 -10 -14 -20 -20 -10 -5 -41 -29 -69 -52 -49 -40 -53 -42 -135 -46 -46 -2
-93 -6 -103 -8 -10 -2 -21 1 -23 7 -6 16 51 34 109 34 60 0 100 16 157 64 41
34 89 46 84 21z m-32 -66 c-65 -39 -87 -115 -51 -174 29 -47 72 -69 123 -62
44 6 94 47 104 85 9 38 26 20 59 -64 50 -124 50 -124 17 -124 l-28 -1 36 -19
c85 -45 138 -140 119 -211 -12 -41 -42 -59 -100 -59 -30 0 -38 -3 -34 -15 11
-29 -143 -98 -170 -76 -10 9 -24 5 -57 -14 -62 -35 -110 -33 -143 6 -33 38
-40 66 -34 134 3 30 1 55 -4 55 -4 0 -8 -4 -8 -10 0 -49 -92 117 -109 197 l-9
42 29 -14 c15 -8 47 -15 70 -15 78 0 140 96 109 170 -21 50 -66 75 -134 75
-38 0 -61 5 -64 13 -3 9 20 12 87 12 l91 0 55 50 c31 28 61 48 66 44 6 -3 -3
-14 -20 -25z m116 -21 c12 -6 30 -27 39 -46 34 -73 -19 -152 -103 -152 -87 0
-131 89 -83 167 29 48 87 60 147 31z m280 -54 c13 -4 20 -11 16 -20 -9 -25
-73 -14 -73 12 0 15 21 18 57 8z m-756 -49 c-17 -20 -31 -46 -31 -58 0 -19 2
-18 20 10 17 29 80 73 80 57 0 -3 -13 -22 -30 -41 -36 -41 -37 -59 -5 -123 13
-26 27 -67 31 -90 l7 -41 -53 3 -52 3 -23 61 c-12 33 -33 79 -45 103 -23 46
-20 67 6 35 14 -18 14 -16 9 22 -4 26 -2 45 4 49 7 4 11 -8 11 -35 0 -25 4
-39 10 -35 6 3 10 19 10 35 0 20 11 37 36 60 46 40 56 31 15 -15z m238 -14
c84 -78 -13 -225 -119 -181 -43 18 -63 53 -63 107 0 39 5 50 31 75 46 40 108
40 151 -1z m721 -1 c187 -38 175 -32 199 -102 26 -77 26 -88 0 -88 -24 0 -288
56 -337 72 -30 9 -33 13 -27 37 4 14 9 45 12 68 4 37 8 42 27 38 11 -2 68 -13
126 -25z m-167 3 c14 -8 7 -32 -13 -43 -16 -9 -18 -15 -10 -30 20 -36 10 -36
-78 1 l-43 19 15 29 c9 16 21 32 28 35 13 5 87 -3 101 -11z m-137 -74 c19 -11
34 -22 34 -24 0 -8 -75 24 -78 34 -5 16 7 14 44 -10z m19 -83 c0 -49 -16 -46
-32 6 -17 58 -16 63 10 46 16 -11 22 -25 22 -52z m265 -6 c128 -33 184 -51
182 -60 -6 -27 -269 -246 -337 -280 -76 -38 -165 -68 -171 -58 -10 16 27 44
73 57 71 20 94 99 53 188 l-19 42 45 39 c24 22 44 42 44 46 0 3 -19 15 -42 27
-24 12 -49 26 -55 31 -19 15 -4 31 21 22 11 -4 104 -28 206 -54z m-195 -7 c19
-9 35 -20 35 -24 0 -4 -16 -21 -36 -39 -32 -28 -38 -30 -51 -17 -12 12 -13 21
-2 56 7 22 14 41 15 41 2 0 19 -8 39 -17z m463 -128 l5 -56 -59 -57 c-59 -58
-225 -199 -278 -238 l-28 -20 20 -75 c25 -90 68 -312 78 -395 4 -41 3 -64 -5
-68 -7 -5 -11 3 -11 21 0 21 -13 42 -50 78 -27 27 -50 55 -50 62 0 8 11 36 25
63 14 27 25 56 25 65 0 16 -134 264 -152 280 -11 10 102 -210 130 -253 13 -20
12 -28 -12 -81 -14 -32 -26 -64 -26 -71 0 -7 23 -37 50 -66 53 -56 59 -77 36
-123 -17 -32 -82 -85 -90 -73 -3 5 -15 72 -26 148 -25 163 -71 380 -105 495
-14 45 -22 85 -19 90 2 5 27 15 54 23 70 21 209 120 340 241 94 87 111 98 128
81 9 -8 17 -40 20 -71z m-1393 65 c13 -6 -6 -7 -50 -3 -38 3 -72 7 -74 9 -9 8
105 2 124 -6z m119 -78 c124 -66 209 -220 193 -351 -11 -97 -83 -237 -128
-248 -16 -4 -18 -11 -13 -43 5 -30 2 -42 -15 -59 -24 -24 -67 -27 -95 -6 -14
11 -23 12 -33 4 -10 -9 -13 -8 -13 3 0 8 18 31 40 53 56 54 41 57 -18 3 -55
-49 -112 -71 -146 -58 -12 4 -36 20 -54 35 -18 15 -32 23 -32 18 0 -13 38 -47
75 -67 l30 -17 -47 4 c-48 4 -168 55 -202 85 -27 24 -96 112 -96 123 0 5 15 9
33 10 30 0 29 1 -15 15 -57 17 -98 63 -98 107 0 34 31 110 49 121 6 4 11 21
11 38 0 78 132 229 235 267 69 26 199 29 232 6 19 -14 22 -13 39 13 l19 27 3
-30 c2 -24 12 -35 46 -53z m126 -37 c13 -14 21 -25 18 -25 -2 0 -15 11 -28 25
-13 14 -21 25 -18 25 2 0 15 -11 28 -25z m-15 -15 c12 -19 -12 -10 -31 11 -19
22 -19 22 3 10 12 -6 25 -16 28 -21z m1172 -175 c-7 -163 -32 -268 -96 -400
-47 -95 -132 -225 -149 -225 -4 0 -15 51 -25 113 -9 61 -28 157 -41 212 -42
180 -51 150 79 259 62 53 140 120 172 150 44 42 59 50 62 38 2 -10 1 -75 -2
-147z m-1106 102 c-13 -13 -26 -3 -16 12 3 6 11 8 17 5 6 -4 6 -10 -1 -17z
m59 -23 c14 -36 12 -71 -4 -77 -29 -11 -44 28 -30 81 8 29 22 28 34 -4z m35
-124 c28 -55 91 -73 158 -45 48 20 59 19 55 -6 -2 -14 -18 -26 -53 -39 -27
-10 -68 -25 -90 -33 -22 -8 -51 -17 -65 -19 -23 -3 -25 0 -31 52 -3 30 -10 70
-14 88 -6 26 -4 32 8 32 9 0 23 -13 32 -30z m395 -10 c9 -17 6 -26 -20 -51
-28 -28 -35 -31 -72 -25 -88 14 -90 47 -5 74 80 26 84 26 97 2z m-142 -172
c56 -171 96 -392 109 -592 l6 -102 -28 -12 c-39 -18 -48 -6 -79 103 -32 110
-32 129 -1 184 14 23 25 49 25 57 0 7 -20 27 -44 43 -24 17 -46 38 -50 46 -3
9 -6 58 -6 107 0 123 -8 108 -11 -21 -2 -90 0 -104 15 -113 10 -6 32 -23 49
-38 l32 -28 -29 -61 -29 -61 31 -102 c39 -124 39 -136 6 -148 -62 -24 -64 -21
-64 103 0 152 -15 270 -50 406 -17 63 -32 117 -35 120 -3 2 -37 -3 -77 -12
-39 -10 -73 -16 -75 -13 -2 2 4 36 13 75 17 78 13 74 109 104 28 9 68 22 90
31 22 8 45 15 52 16 6 0 25 -42 41 -92z m-143 -185 c42 -162 46 -195 52 -379
5 -182 5 -192 -13 -197 -11 -3 -71 -7 -134 -9 l-114 -3 -17 110 c-11 74 -13
112 -6 117 11 7 -13 105 -54 215 l-23 62 49 43 c71 63 78 67 157 88 40 10 76
19 79 19 4 1 14 -29 24 -66z m-827 -32 c47 -32 95 -54 147 -66 48 -11 50 -13
51 -46 1 -54 2 -55 42 -102 34 -39 105 -163 154 -269 21 -47 15 -48 -79 -13
-88 33 -204 96 -270 146 l-53 40 0 72 c0 50 -3 67 -10 57 -5 -8 -10 -27 -10
-42 0 -33 -13 -42 -41 -27 -20 10 -21 17 -16 83 5 63 40 186 54 186 3 0 17 -8
31 -19z m332 -61 c13 -13 20 -34 20 -57 1 -72 18 -114 101 -238 45 -69 84
-123 86 -121 4 3 -17 56 -38 97 -9 19 15 59 36 59 8 0 19 -9 24 -19 12 -22 43
-200 36 -211 -4 -6 -112 5 -146 15 -8 3 -25 26 -38 53 -21 43 -113 215 -154
286 -9 17 -23 31 -29 31 -7 0 -14 8 -16 18 -2 9 1 17 7 17 6 0 11 9 11 20 0
11 7 20 15 20 9 0 12 6 8 16 -5 13 -2 15 15 10 17 -6 21 -4 16 8 -9 23 22 20
46 -4z m-500 -10 c0 -5 -2 -10 -4 -10 -3 0 -8 5 -11 10 -3 6 -1 10 4 10 6 0
11 -4 11 -10z m684 -17 c15 -31 66 -192 66 -211 0 -7 -12 -11 -30 -10 -19 1
-38 -6 -55 -22 -25 -23 -25 -23 -40 -4 -8 10 -22 39 -31 64 -9 25 -25 65 -35
89 -11 24 -19 58 -19 77 l0 33 58 4 c31 2 60 4 64 5 4 1 14 -10 22 -25z m-704
-4 c0 -6 -4 -7 -10 -4 -5 3 -10 11 -10 16 0 6 5 7 10 4 6 -3 10 -11 10 -16z
m73 -29 c6 -23 -2 -60 -13 -60 -4 0 -13 6 -19 14 -9 11 -9 16 0 21 8 6 7 10
-2 16 -12 8 -11 11 1 19 22 14 27 12 33 -10z"/>
<path d="M1645 1602 c-27 -15 -52 -28 -54 -29 -2 -2 -1 -6 2 -10 9 -9 83 26
103 48 23 26 9 23 -51 -9z"/>
<path d="M1486 1548 c3 -18 7 -38 9 -45 2 -7 0 -15 -5 -18 -4 -3 -17 13 -27
35 -10 22 -21 40 -25 40 -12 0 -10 -5 14 -55 37 -76 78 -54 57 31 -13 51 -31
60 -23 12z"/>
<path d="M1345 1470 c-11 -5 -40 -9 -64 -9 -33 -1 -42 -4 -34 -12 15 -15 108
-2 124 17 13 16 4 17 -26 4z"/>
<path d="M1570 1464 c-139 -38 -220 -131 -220 -255 0 -45 4 -55 35 -86 29 -29
40 -34 62 -28 26 6 99 61 137 104 17 19 30 21 116 21 83 0 101 3 124 21 56 44
14 168 -74 214 -42 21 -120 26 -180 9z m80 -14 c0 -5 -7 -10 -15 -10 -8 0 -15
5 -15 10 0 6 7 10 15 10 8 0 15 -4 15 -10z m-50 -9 c0 -14 -18 -23 -30 -16 -6
4 -8 11 -5 16 8 12 35 12 35 0z m112 -3 c-9 -9 -15 -9 -24 0 -9 9 -7 12 12 12
19 0 21 -3 12 -12z m-172 -18 c0 -5 -7 -10 -15 -10 -8 0 -15 5 -15 10 0 6 7
10 15 10 8 0 15 -4 15 -10z m-50 -25 c0 -8 -7 -15 -15 -15 -16 0 -20 12 -8 23
11 12 23 8 23 -8z m-40 -34 c0 -12 -20 -25 -27 -18 -7 7 6 27 18 27 5 0 9 -4
9 -9z m200 -111 c0 -5 -4 -10 -10 -10 -5 0 -10 5 -10 10 0 6 5 10 10 10 6 0
10 -4 10 -10z m60 0 c0 -5 -4 -10 -10 -10 -5 0 -10 5 -10 10 0 6 5 10 10 10 6
0 10 -4 10 -10z m-160 -49 c0 -6 -4 -13 -10 -16 -5 -3 -10 1 -10 9 0 9 5 16
10 16 6 0 10 -4 10 -9z m-40 -40 c0 -6 -4 -13 -10 -16 -5 -3 -10 1 -10 9 0 9
5 16 10 16 6 0 10 -4 10 -9z"/>
<path d="M1520 1720 c0 -5 7 -10 15 -10 8 0 15 5 15 10 0 6 -7 10 -15 10 -8 0
-15 -4 -15 -10z"/>
<path d="M1266 1621 c-4 -5 -2 -12 3 -15 5 -4 12 -2 15 3 4 5 2 12 -3 15 -5 4
-12 2 -15 -3z"/>
<path d="M783 1376 c-118 -37 -298 -234 -317 -346 -10 -57 10 -81 91 -111 80
-29 144 -73 218 -148 55 -56 82 -63 141 -35 135 64 210 296 154 475 -44 144
-153 206 -287 165z m88 -19 c-13 -13 -26 -3 -16 12 3 6 11 8 17 5 6 -4 6 -10
-1 -17z m-41 4 c0 -12 -28 -22 -34 -12 -3 5 -3 11 1 15 9 9 33 7 33 -3z m94
-12 c-3 -5 -10 -7 -15 -3 -5 3 -7 10 -3 15 3 5 10 7 15 3 5 -3 7 -10 3 -15z
m56 -20 c0 -11 -27 -12 -34 0 -3 4 -3 11 0 14 8 8 34 -3 34 -14z m34 -35 c9
-22 8 -24 -9 -18 -8 4 -15 12 -15 20 0 19 16 18 24 -2z m30 -49 c3 -9 0 -15
-9 -15 -8 0 -15 7 -15 15 0 8 4 15 9 15 5 0 11 -7 15 -15z m16 -57 c0 -16 -3
-19 -11 -11 -6 6 -8 16 -5 22 11 17 16 13 16 -11z m-460 -248 c0 -5 -7 -10
-15 -10 -8 0 -15 5 -15 10 0 6 7 10 15 10 8 0 15 -4 15 -10z m45 -9 c7 -12
-12 -24 -25 -16 -11 7 -4 25 10 25 5 0 11 -4 15 -9z m41 -26 c4 -8 15 -15 25
-15 10 0 19 -7 19 -15 0 -8 -6 -15 -12 -15 -17 1 -58 35 -58 49 0 16 20 13 26
-4z m80 -56 c3 -6 1 -16 -5 -22 -9 -9 -14 -8 -21 3 -9 15 -4 30 10 30 5 0 12
-5 16 -11z m34 -49 c0 -11 7 -20 15 -20 16 0 20 -12 8 -24 -9 -9 -54 44 -47
55 10 16 24 9 24 -11z"/>
</g>
</svg>
